<mxfile host="app.diagrams.net" modified="2024-05-06T12:35:15.024Z" agent="Mozilla/5.0 (Windows NT 10.0; Win64; x64) AppleWebKit/537.36 (KHTML, like Gecko) Chrome/124.0.0.0 Safari/537.36" etag="hGQ4CVQG0Zx_0Nzq7-qa" version="24.2.7" type="device">
  <diagram name="PÃ¡gina-1" id="Xpz6J3GxqgxeqeQ8CKks">
    <mxGraphModel dx="1290" dy="522" grid="1" gridSize="10" guides="1" tooltips="1" connect="1" arrows="1" fold="1" page="1" pageScale="1" pageWidth="827" pageHeight="1169" math="0" shadow="0">
      <root>
        <mxCell id="0" />
        <mxCell id="1" parent="0" />
        <mxCell id="xpPgr90MCXhRjhfY_lGg-3" value="" style="edgeStyle=orthogonalEdgeStyle;rounded=0;orthogonalLoop=1;jettySize=auto;html=1;" edge="1" parent="1" source="xpPgr90MCXhRjhfY_lGg-1" target="xpPgr90MCXhRjhfY_lGg-2">
          <mxGeometry relative="1" as="geometry" />
        </mxCell>
        <mxCell id="xpPgr90MCXhRjhfY_lGg-1" value="Inicio" style="ellipse;whiteSpace=wrap;html=1;" vertex="1" parent="1">
          <mxGeometry x="354" width="120" height="80" as="geometry" />
        </mxCell>
        <mxCell id="xpPgr90MCXhRjhfY_lGg-17" value="" style="edgeStyle=orthogonalEdgeStyle;rounded=0;orthogonalLoop=1;jettySize=auto;html=1;" edge="1" parent="1" source="xpPgr90MCXhRjhfY_lGg-2">
          <mxGeometry relative="1" as="geometry">
            <mxPoint x="413" y="257" as="targetPoint" />
          </mxGeometry>
        </mxCell>
        <mxCell id="xpPgr90MCXhRjhfY_lGg-2" value="id = x&lt;div&gt;nombre del curso = x&lt;/div&gt;&lt;div&gt;horario = x&lt;/div&gt;&lt;div&gt;salion = 0&lt;/div&gt;&lt;div&gt;catedratico = x&lt;/div&gt;" style="shape=parallelogram;perimeter=parallelogramPerimeter;whiteSpace=wrap;html=1;fixedSize=1;" vertex="1" parent="1">
          <mxGeometry x="316" y="130" width="194" height="90" as="geometry" />
        </mxCell>
        <mxCell id="xpPgr90MCXhRjhfY_lGg-7" value="" style="edgeStyle=orthogonalEdgeStyle;rounded=0;orthogonalLoop=1;jettySize=auto;html=1;" edge="1" parent="1" source="xpPgr90MCXhRjhfY_lGg-4" target="xpPgr90MCXhRjhfY_lGg-6">
          <mxGeometry relative="1" as="geometry" />
        </mxCell>
        <mxCell id="xpPgr90MCXhRjhfY_lGg-4" value="Ingrese el numero de ID" style="whiteSpace=wrap;html=1;" vertex="1" parent="1">
          <mxGeometry x="353" y="380" width="120" height="60" as="geometry" />
        </mxCell>
        <mxCell id="xpPgr90MCXhRjhfY_lGg-9" value="" style="edgeStyle=orthogonalEdgeStyle;rounded=0;orthogonalLoop=1;jettySize=auto;html=1;" edge="1" parent="1" source="xpPgr90MCXhRjhfY_lGg-6" target="xpPgr90MCXhRjhfY_lGg-8">
          <mxGeometry relative="1" as="geometry" />
        </mxCell>
        <mxCell id="xpPgr90MCXhRjhfY_lGg-6" value="Ingresar el nombre del curso" style="whiteSpace=wrap;html=1;" vertex="1" parent="1">
          <mxGeometry x="353" y="487" width="120" height="60" as="geometry" />
        </mxCell>
        <mxCell id="xpPgr90MCXhRjhfY_lGg-11" value="" style="edgeStyle=orthogonalEdgeStyle;rounded=0;orthogonalLoop=1;jettySize=auto;html=1;" edge="1" parent="1" source="xpPgr90MCXhRjhfY_lGg-8" target="xpPgr90MCXhRjhfY_lGg-10">
          <mxGeometry relative="1" as="geometry" />
        </mxCell>
        <mxCell id="xpPgr90MCXhRjhfY_lGg-8" value="Ingresar el horario del curso" style="whiteSpace=wrap;html=1;" vertex="1" parent="1">
          <mxGeometry x="353" y="592" width="120" height="60" as="geometry" />
        </mxCell>
        <mxCell id="xpPgr90MCXhRjhfY_lGg-13" value="" style="edgeStyle=orthogonalEdgeStyle;rounded=0;orthogonalLoop=1;jettySize=auto;html=1;" edge="1" parent="1" source="xpPgr90MCXhRjhfY_lGg-10" target="xpPgr90MCXhRjhfY_lGg-12">
          <mxGeometry relative="1" as="geometry" />
        </mxCell>
        <mxCell id="xpPgr90MCXhRjhfY_lGg-10" value="Ingrese su numero de salon" style="whiteSpace=wrap;html=1;" vertex="1" parent="1">
          <mxGeometry x="353" y="688" width="120" height="60" as="geometry" />
        </mxCell>
        <mxCell id="xpPgr90MCXhRjhfY_lGg-26" value="" style="edgeStyle=orthogonalEdgeStyle;rounded=0;orthogonalLoop=1;jettySize=auto;html=1;" edge="1" parent="1" source="xpPgr90MCXhRjhfY_lGg-12" target="xpPgr90MCXhRjhfY_lGg-25">
          <mxGeometry relative="1" as="geometry" />
        </mxCell>
        <mxCell id="xpPgr90MCXhRjhfY_lGg-12" value="Ingrese el nombre del catedratico" style="whiteSpace=wrap;html=1;" vertex="1" parent="1">
          <mxGeometry x="353" y="793" width="120" height="60" as="geometry" />
        </mxCell>
        <mxCell id="xpPgr90MCXhRjhfY_lGg-19" value="" style="edgeStyle=orthogonalEdgeStyle;rounded=0;orthogonalLoop=1;jettySize=auto;html=1;" edge="1" parent="1" source="xpPgr90MCXhRjhfY_lGg-18" target="xpPgr90MCXhRjhfY_lGg-4">
          <mxGeometry relative="1" as="geometry" />
        </mxCell>
        <mxCell id="xpPgr90MCXhRjhfY_lGg-28" value="" style="edgeStyle=orthogonalEdgeStyle;rounded=0;orthogonalLoop=1;jettySize=auto;html=1;entryX=1;entryY=0.5;entryDx=0;entryDy=0;" edge="1" parent="1" source="xpPgr90MCXhRjhfY_lGg-18" target="xpPgr90MCXhRjhfY_lGg-25">
          <mxGeometry relative="1" as="geometry">
            <mxPoint x="533" y="300" as="targetPoint" />
            <Array as="points">
              <mxPoint x="630" y="300" />
              <mxPoint x="630" y="930" />
            </Array>
          </mxGeometry>
        </mxCell>
        <mxCell id="xpPgr90MCXhRjhfY_lGg-18" value="Desea crear un curso?" style="rhombus;whiteSpace=wrap;html=1;" vertex="1" parent="1">
          <mxGeometry x="373" y="260" width="80" height="80" as="geometry" />
        </mxCell>
        <mxCell id="xpPgr90MCXhRjhfY_lGg-20" value="Si" style="text;html=1;align=center;verticalAlign=middle;whiteSpace=wrap;rounded=0;" vertex="1" parent="1">
          <mxGeometry x="360" y="340" width="60" height="30" as="geometry" />
        </mxCell>
        <mxCell id="xpPgr90MCXhRjhfY_lGg-21" value="No" style="text;html=1;align=center;verticalAlign=middle;whiteSpace=wrap;rounded=0;" vertex="1" parent="1">
          <mxGeometry x="490" y="260" width="60" height="30" as="geometry" />
        </mxCell>
        <mxCell id="xpPgr90MCXhRjhfY_lGg-30" value="" style="edgeStyle=orthogonalEdgeStyle;rounded=0;orthogonalLoop=1;jettySize=auto;html=1;" edge="1" parent="1" source="xpPgr90MCXhRjhfY_lGg-25" target="xpPgr90MCXhRjhfY_lGg-29">
          <mxGeometry relative="1" as="geometry" />
        </mxCell>
        <mxCell id="xpPgr90MCXhRjhfY_lGg-38" value="" style="edgeStyle=orthogonalEdgeStyle;rounded=0;orthogonalLoop=1;jettySize=auto;html=1;entryX=0;entryY=0.5;entryDx=0;entryDy=0;" edge="1" parent="1" source="xpPgr90MCXhRjhfY_lGg-25" target="xpPgr90MCXhRjhfY_lGg-35">
          <mxGeometry relative="1" as="geometry">
            <mxPoint x="313" y="930" as="targetPoint" />
            <Array as="points">
              <mxPoint x="240" y="930" />
              <mxPoint x="240" y="1338" />
            </Array>
          </mxGeometry>
        </mxCell>
        <mxCell id="xpPgr90MCXhRjhfY_lGg-25" value="Desea agregar alumnos?" style="rhombus;whiteSpace=wrap;html=1;" vertex="1" parent="1">
          <mxGeometry x="373" y="890" width="80" height="80" as="geometry" />
        </mxCell>
        <mxCell id="xpPgr90MCXhRjhfY_lGg-32" value="" style="edgeStyle=orthogonalEdgeStyle;rounded=0;orthogonalLoop=1;jettySize=auto;html=1;" edge="1" parent="1" source="xpPgr90MCXhRjhfY_lGg-29" target="xpPgr90MCXhRjhfY_lGg-31">
          <mxGeometry relative="1" as="geometry" />
        </mxCell>
        <mxCell id="xpPgr90MCXhRjhfY_lGg-29" value="Ingresar carne del alumno" style="whiteSpace=wrap;html=1;" vertex="1" parent="1">
          <mxGeometry x="353" y="1006" width="120" height="60" as="geometry" />
        </mxCell>
        <mxCell id="xpPgr90MCXhRjhfY_lGg-34" value="" style="edgeStyle=orthogonalEdgeStyle;rounded=0;orthogonalLoop=1;jettySize=auto;html=1;" edge="1" parent="1" source="xpPgr90MCXhRjhfY_lGg-31" target="xpPgr90MCXhRjhfY_lGg-33">
          <mxGeometry relative="1" as="geometry" />
        </mxCell>
        <mxCell id="xpPgr90MCXhRjhfY_lGg-31" value="Ingresar nombre del alumno" style="whiteSpace=wrap;html=1;" vertex="1" parent="1">
          <mxGeometry x="353" y="1100" width="120" height="60" as="geometry" />
        </mxCell>
        <mxCell id="xpPgr90MCXhRjhfY_lGg-36" value="" style="edgeStyle=orthogonalEdgeStyle;rounded=0;orthogonalLoop=1;jettySize=auto;html=1;" edge="1" parent="1" source="xpPgr90MCXhRjhfY_lGg-33" target="xpPgr90MCXhRjhfY_lGg-35">
          <mxGeometry relative="1" as="geometry" />
        </mxCell>
        <mxCell id="xpPgr90MCXhRjhfY_lGg-33" value="Ingrese la fecha de nacimiento del alumno" style="whiteSpace=wrap;html=1;" vertex="1" parent="1">
          <mxGeometry x="353" y="1196" width="120" height="60" as="geometry" />
        </mxCell>
        <mxCell id="xpPgr90MCXhRjhfY_lGg-42" value="" style="edgeStyle=orthogonalEdgeStyle;rounded=0;orthogonalLoop=1;jettySize=auto;html=1;entryX=0.5;entryY=0;entryDx=0;entryDy=0;" edge="1" parent="1" source="xpPgr90MCXhRjhfY_lGg-35" target="xpPgr90MCXhRjhfY_lGg-41">
          <mxGeometry relative="1" as="geometry">
            <Array as="points">
              <mxPoint x="413" y="1380" />
              <mxPoint x="120" y="1380" />
            </Array>
          </mxGeometry>
        </mxCell>
        <mxCell id="xpPgr90MCXhRjhfY_lGg-44" value="" style="edgeStyle=orthogonalEdgeStyle;rounded=0;orthogonalLoop=1;jettySize=auto;html=1;entryX=0.5;entryY=0;entryDx=0;entryDy=0;" edge="1" parent="1" source="xpPgr90MCXhRjhfY_lGg-35" target="xpPgr90MCXhRjhfY_lGg-43">
          <mxGeometry relative="1" as="geometry">
            <Array as="points">
              <mxPoint x="413" y="1380" />
              <mxPoint x="280" y="1380" />
            </Array>
          </mxGeometry>
        </mxCell>
        <mxCell id="xpPgr90MCXhRjhfY_lGg-46" value="" style="edgeStyle=orthogonalEdgeStyle;rounded=0;orthogonalLoop=1;jettySize=auto;html=1;" edge="1" parent="1" source="xpPgr90MCXhRjhfY_lGg-35" target="xpPgr90MCXhRjhfY_lGg-45">
          <mxGeometry relative="1" as="geometry" />
        </mxCell>
        <mxCell id="xpPgr90MCXhRjhfY_lGg-47" value="" style="edgeStyle=orthogonalEdgeStyle;rounded=0;orthogonalLoop=1;jettySize=auto;html=1;" edge="1" parent="1" source="xpPgr90MCXhRjhfY_lGg-35" target="xpPgr90MCXhRjhfY_lGg-45">
          <mxGeometry relative="1" as="geometry" />
        </mxCell>
        <mxCell id="xpPgr90MCXhRjhfY_lGg-49" value="" style="edgeStyle=orthogonalEdgeStyle;rounded=0;orthogonalLoop=1;jettySize=auto;html=1;exitX=0.5;exitY=1;exitDx=0;exitDy=0;" edge="1" parent="1" source="xpPgr90MCXhRjhfY_lGg-35" target="xpPgr90MCXhRjhfY_lGg-48">
          <mxGeometry relative="1" as="geometry">
            <Array as="points">
              <mxPoint x="413" y="1380" />
              <mxPoint x="550" y="1380" />
            </Array>
          </mxGeometry>
        </mxCell>
        <mxCell id="xpPgr90MCXhRjhfY_lGg-50" style="edgeStyle=orthogonalEdgeStyle;rounded=0;orthogonalLoop=1;jettySize=auto;html=1;entryX=0.5;entryY=0;entryDx=0;entryDy=0;exitX=0.5;exitY=1;exitDx=0;exitDy=0;" edge="1" parent="1" source="xpPgr90MCXhRjhfY_lGg-35" target="xpPgr90MCXhRjhfY_lGg-51">
          <mxGeometry relative="1" as="geometry">
            <mxPoint x="720" y="1430" as="targetPoint" />
            <Array as="points">
              <mxPoint x="413" y="1380" />
              <mxPoint x="710" y="1380" />
            </Array>
          </mxGeometry>
        </mxCell>
        <mxCell id="xpPgr90MCXhRjhfY_lGg-35" value="Que desea ver?" style="rhombus;whiteSpace=wrap;html=1;" vertex="1" parent="1">
          <mxGeometry x="373" y="1298" width="80" height="80" as="geometry" />
        </mxCell>
        <mxCell id="xpPgr90MCXhRjhfY_lGg-39" value="Si" style="text;html=1;align=center;verticalAlign=middle;whiteSpace=wrap;rounded=0;" vertex="1" parent="1">
          <mxGeometry x="420" y="970" width="60" height="30" as="geometry" />
        </mxCell>
        <mxCell id="xpPgr90MCXhRjhfY_lGg-40" value="No" style="text;html=1;align=center;verticalAlign=middle;whiteSpace=wrap;rounded=0;" vertex="1" parent="1">
          <mxGeometry x="290" y="910" width="60" height="30" as="geometry" />
        </mxCell>
        <mxCell id="xpPgr90MCXhRjhfY_lGg-53" style="edgeStyle=orthogonalEdgeStyle;rounded=0;orthogonalLoop=1;jettySize=auto;html=1;entryX=0;entryY=0.5;entryDx=0;entryDy=0;" edge="1" parent="1" source="xpPgr90MCXhRjhfY_lGg-41" target="xpPgr90MCXhRjhfY_lGg-52">
          <mxGeometry relative="1" as="geometry">
            <Array as="points">
              <mxPoint x="120" y="1714" />
            </Array>
          </mxGeometry>
        </mxCell>
        <mxCell id="xpPgr90MCXhRjhfY_lGg-41" value="Listado de cursos con la cantidad de estudiantes" style="whiteSpace=wrap;html=1;" vertex="1" parent="1">
          <mxGeometry x="60" y="1440" width="120" height="60" as="geometry" />
        </mxCell>
        <mxCell id="xpPgr90MCXhRjhfY_lGg-54" style="edgeStyle=orthogonalEdgeStyle;rounded=0;orthogonalLoop=1;jettySize=auto;html=1;entryX=0;entryY=0;entryDx=0;entryDy=0;" edge="1" parent="1" source="xpPgr90MCXhRjhfY_lGg-43" target="xpPgr90MCXhRjhfY_lGg-52">
          <mxGeometry relative="1" as="geometry">
            <Array as="points">
              <mxPoint x="280" y="1686" />
            </Array>
          </mxGeometry>
        </mxCell>
        <mxCell id="xpPgr90MCXhRjhfY_lGg-43" value="listar estudiantes de un curso" style="whiteSpace=wrap;html=1;" vertex="1" parent="1">
          <mxGeometry x="220" y="1450" width="120" height="60" as="geometry" />
        </mxCell>
        <mxCell id="xpPgr90MCXhRjhfY_lGg-57" style="edgeStyle=orthogonalEdgeStyle;rounded=0;orthogonalLoop=1;jettySize=auto;html=1;entryX=0.5;entryY=0;entryDx=0;entryDy=0;" edge="1" parent="1" source="xpPgr90MCXhRjhfY_lGg-45" target="xpPgr90MCXhRjhfY_lGg-52">
          <mxGeometry relative="1" as="geometry" />
        </mxCell>
        <mxCell id="xpPgr90MCXhRjhfY_lGg-45" value="listar un estudiante con sus notas" style="whiteSpace=wrap;html=1;" vertex="1" parent="1">
          <mxGeometry x="353" y="1500" width="120" height="60" as="geometry" />
        </mxCell>
        <mxCell id="xpPgr90MCXhRjhfY_lGg-56" style="edgeStyle=orthogonalEdgeStyle;rounded=0;orthogonalLoop=1;jettySize=auto;html=1;entryX=1;entryY=0;entryDx=0;entryDy=0;" edge="1" parent="1" source="xpPgr90MCXhRjhfY_lGg-48" target="xpPgr90MCXhRjhfY_lGg-52">
          <mxGeometry relative="1" as="geometry">
            <Array as="points">
              <mxPoint x="550" y="1686" />
            </Array>
          </mxGeometry>
        </mxCell>
        <mxCell id="xpPgr90MCXhRjhfY_lGg-48" value="reporte por la nota media por curso" style="whiteSpace=wrap;html=1;" vertex="1" parent="1">
          <mxGeometry x="490" y="1450" width="120" height="60" as="geometry" />
        </mxCell>
        <mxCell id="xpPgr90MCXhRjhfY_lGg-55" style="edgeStyle=orthogonalEdgeStyle;rounded=0;orthogonalLoop=1;jettySize=auto;html=1;entryX=1;entryY=0.5;entryDx=0;entryDy=0;" edge="1" parent="1" source="xpPgr90MCXhRjhfY_lGg-51" target="xpPgr90MCXhRjhfY_lGg-52">
          <mxGeometry relative="1" as="geometry">
            <Array as="points">
              <mxPoint x="710" y="1714" />
            </Array>
          </mxGeometry>
        </mxCell>
        <mxCell id="xpPgr90MCXhRjhfY_lGg-51" value="reporte de estudiante con mejor desempeÃ±o" style="rounded=0;whiteSpace=wrap;html=1;" vertex="1" parent="1">
          <mxGeometry x="650" y="1440" width="120" height="60" as="geometry" />
        </mxCell>
        <mxCell id="xpPgr90MCXhRjhfY_lGg-52" value="Fin" style="ellipse;whiteSpace=wrap;html=1;" vertex="1" parent="1">
          <mxGeometry x="353" y="1674" width="120" height="80" as="geometry" />
        </mxCell>
      </root>
    </mxGraphModel>
  </diagram>
</mxfile>
